<svg class="icon" viewBox="0 0 1025 1024" version="1.1" xmlns="http://www.w3.org/2000/svg" width="16" height="16"><path d="M764.164547 0.040286a250.704154 250.704154 0 0 0-180.313742 71.948872l-165.508378 165.63825a40.000456 40.000456 0 0 0 0.805204 55.922714 40.597865 40.597865 0 0 0 56.364278 0.805204l165.534353-165.248635h0.519486a169.872065 169.872065 0 0 1 123.767644-49.351211 181.664407 181.664407 0 0 1 178.885154 178.625411 171.014935 171.014935 0 0 1-49.351211 123.975438l-179.976076 179.846204a172.755214 172.755214 0 0 1-123.196208 48.390161 183.482609 183.482609 0 0 1-152.780961-88.312694 187.482655 187.482655 0 0 1-18.182026-40.260199A40.80566 40.80566 0 0 0 370.809418 454.590918a38.753688 38.753688 0 0 0-25.818476 48.935622 269.301768 269.301768 0 0 0 26.8055 58.00066v0.363641a264.62639 264.62639 0 0 0 220.937581 127.481971 249.353489 249.353489 0 0 0 178.261771-70.000797L951.283561 439.006325a247.535287 247.535287 0 0 0 71.793026-179.560487A264.132878 264.132878 0 0 0 764.164547 0.040286m-216.573895 728.501804l-165.352532 165.508378c-67.169596 67.19557-181.041023 65.792957-250.106745-3.350687v-0.233769c-69.247542-69.039747-70.85795-182.469611-3.584456-249.35349L306.678817 462.383214A173.612367 173.612367 0 0 1 431.173742 413.291746a183.508583 183.508583 0 0 1 125.819615 52.701899v0.493512A172.105856 172.105856 0 0 1 583.850805 501.344697a163.118741 163.118741 0 0 1 18.182026 39.558892 40.442019 40.442019 0 0 0 49.351211 27.740576 38.961483 38.961483 0 0 0 26.519783-48.805751 311.510041 311.510041 0 0 0-25.584707-58.000661 329.198554 329.198554 0 0 0-39.558893-50.623953 264.756262 264.756262 0 0 0-182.443636-77.117761 249.847001 249.847001 0 0 0-180.313742 71.922897l-178.677359 178.209822c-97.117989 97.351758-94.702377 261.327652 5.194864 361.978148l2.857175 2.10392c100.520625 97.871245 261.795189 99.325807 358.939153 3.688354v-0.623384l0.467538-0.467538 165.975916-165.300583a40.442019 40.442019 0 0 0-57.143508-57.143508" fill="#e6e6e6"></path></svg>
