<svg class="icon" viewBox="0 0 1024 1024" version="1.1" xmlns="http://www.w3.org/2000/svg" width="200" height="200"><path d="M832 256c0-140.8-115.2-256-256-256S320 115.2 320 256c0 83.2 44.8 160 108.8 204.8C217.6 518.4 64 704 64 928c0 19.2 12.8 32 32 32s32-12.8 32-32C128 697.6 313.6 512 544 512H576c140.8 0 256-115.2 256-256zM384 256c0-108.8 83.2-192 192-192s192 83.2 192 192-83.2 192-192 192-192-83.2-192-192z m448 352c0 19.2-12.8 32-32 32h-128c-19.2 0-32-12.8-32-32s12.8-32 32-32h128c19.2 0 32 12.8 32 32z m192 256c0 19.2-12.8 32-32 32h-320c-19.2 0-32-12.8-32-32s12.8-32 32-32h320c19.2 0 32 12.8 32 32zM672 704h256c19.2 0 32 12.8 32 32s-12.8 32-32 32h-256c-19.2 0-32-12.8-32-32s12.8-32 32-32z" fill="#e6e6e6" ></path></svg>
