<svg class="icon" viewBox="0 0 1024 1024" version="1.1" xmlns="http://www.w3.org/2000/svg"  width="16" height="16"><path d="M201.317324 304.312733A34.72128 34.72128 0 0 1 166.318274 270.054403v-0.740721a34.62869 34.62869 0 0 1 35.076209-34.937324h354.34224a34.937324 34.937324 0 1 1 0 69.874648c0 0.123453-354.419398 0.123453-354.419399 0.123453zM201.317324 479.246259A34.72128 34.72128 0 0 1 166.318274 444.926202v-0.74072a34.62869 34.62869 0 0 1 35.076209-34.937324h431.03769a34.937324 34.937324 0 1 1 0 69.874647H201.317324zM341.43698 653.439064h-140.119656A34.72128 34.72128 0 0 1 166.318274 619.119008v-0.740721a34.62869 34.62869 0 0 1 35.076209-34.937324h140.119656a34.999051 34.999051 0 1 1 0 69.998101z" ></path><path d="M825.55965 150.860105v-6.049218h-0.123453C821.485686 64.442696 755.067735 0 673.588464 0H157.92344C73.851646 0 5.8288 68.51666 5.8288 152.465v709.363473c0 83.94834 68.022846 152.465 152.09464 152.465h216.552767a34.937324 34.937324 0 1 0 0-69.874648v0.740721H157.92344c-44.751872 0-81.973085-37.036032-81.973085-82.590352V152.465c0-45.430866 37.159486-82.590352 81.973085-82.590352h515.665024c44.751872 0 81.973085 37.036032 81.973085 82.590352v437.873924a35.060777 35.060777 0 0 0 70.121554-0.617267V152.465a6.527601 6.527601 0 0 1-0.123453-1.543168z"></path><path d="M422.885388 759.439275a37.560709 37.560709 0 0 0-53.902859-1.095649 41.140859 41.140859 0 0 0-2.330183 55.908977l175.242159 193.929925a46.958603 46.958603 0 0 0 66.942629 3.410401l396.162093-351.842307a41.125428 41.125428 0 0 0 3.611013-56.526245 37.591573 37.591573 0 0 0-54.442968-3.749898L579.03856 932.227798z" ></path></svg>
