<svg class="icon" viewBox="0 0 1025 1024" version="1.1" xmlns="http://www.w3.org/2000/svg"  width="16" height="16"><path d="M993.898403 51.5328C986.916585 46.040436 977.444585 45.016436 969.462039 48.833164 969.462039 48.833164 730.311494 163.288436 491.184221 278.744436-0.568506 516.219345-0.568506 516.219345 0.08313 536.373527 0.385676 545.589527 6.180585 553.874618 14.768221 557.295709 16.490403 557.993891 19.702039 559.273891 273.560948 647.640436 285.732585 651.876073 298.974767 645.476073 303.18713 633.327709 307.422767 621.202618 301.022767 607.913891 288.874403 603.701527 246.006039 588.783709 142.349312 552.687709 80.560221 531.090618 204.37113 468.533527 566.029312 293.918255 865.10713 150.465164L357.97113 657.601164C353.595857 661.953164 351.152221 667.864436 351.152221 674.054982L351.152221 953.327709C351.152221 966.197527 361.55513 976.600436 374.424948 976.600436 387.294767 976.600436 397.697676 966.197527 397.697676 953.327709L397.697676 683.689891 926.151494 155.236073C935.227857 146.136436 939.766039 114.671709 946.934039 111.227345L804.411857 783.041164 521.834403 684.783709C509.77913 680.5248 496.443857 686.971345 492.208221 699.119709 487.995857 711.268073 494.395857 724.510255 506.567494 728.745891L814.070039 835.6608C816.560221 836.521891 819.143494 836.964073 821.726767 836.964073 825.659857 836.964073 829.616221 835.940073 833.153676 833.961891 838.971857 830.680436 843.114403 825.048436 844.487494 818.5088L1002.276585 74.642618C1004.11513 65.985164 1000.880221 57.025164 993.898403 51.5328" fill="#e6e6e6"></path></svg>
