<svg  class="icon" viewBox="0 0 1024 1024" version="1.1" xmlns="http://www.w3.org/2000/svg" width="200" height="200"><path d="M316.16 427.52h391.68c15.36 0 28.16-12.8 28.16-28.16 0-15.36-12.8-28.16-28.16-28.16H316.16c-15.36 0-28.16 12.8-28.16 28.16 0 16.64 12.8 28.16 28.16 28.16z m111.36-195.84h167.68c46.08 0 84.48-37.12 84.48-84.48S642.56 64 596.48 64H427.52c-46.08 0-84.48 37.12-84.48 84.48s38.4 83.2 84.48 83.2z m0-111.36h167.68c15.36 0 28.16 12.8 28.16 28.16s-12.8 28.16-28.16 28.16H427.52c-15.36 0-28.16-12.8-28.16-28.16 0-15.36 12.8-28.16 28.16-28.16z m308.48 448c0-15.36-12.8-28.16-28.16-28.16H316.16c-15.36 0-28.16 12.8-28.16 28.16s12.8 28.16 28.16 28.16h391.68c15.36 0 28.16-12.8 28.16-28.16z m83.2-448h-84.48v56.32H819.2c15.36 0 28.16 12.8 28.16 28.16v672c0 15.36-12.8 28.16-28.16 28.16H203.52c-15.36 0-28.16-12.8-28.16-28.16V203.52c0-15.36 12.8-28.16 28.16-28.16h84.48V120.32h-84.48c-46.08 0-84.48 37.12-84.48 84.48v672c0 46.08 37.12 84.48 84.48 84.48H819.2c46.08 0 84.48-37.12 84.48-84.48V203.52c0-46.08-37.12-83.2-84.48-83.2zM316.16 707.84c-15.36 0-28.16 12.8-28.16 28.16 0 15.36 12.8 28.16 28.16 28.16h224c15.36 0 28.16-12.8 28.16-28.16 0-15.36-12.8-28.16-28.16-28.16H316.16z" fill="#e6e6e6" ></path></svg>
