<svg class="icon" viewBox="0 0 1024 1024" version="1.1" xmlns="http://www.w3.org/2000/svg" width="200" height="200"><path d="M938.547272 240.495703c0-46.052369-37.353588-83.303618-83.303618-83.303618H168.858685c-46.052369 0-83.303618 37.353588-83.303618 83.303618v543.110933c0 46.052369 37.353588 83.303618 83.303618 83.303618h686.384969c46.052369 0 83.303618-37.353588 83.303618-83.303618V240.495703z m-769.279233-16.78353h686.589646c9.210474 0 16.578853 7.368379 16.578853 16.476514v0.71637L524.38297 589.163302c-4.195882 4.195882-9.210474 4.912253-11.768938 4.912253s-7.573056-0.614032-11.768939-4.912253L152.586848 240.905057v-0.71637c0-9.108135 7.470718-16.476514 16.681191-16.476514zM855.857685 800.287827H169.268039c-9.210474 0-16.681191-7.573056-16.681191-16.78353V335.158905l301.080152 301.080152c15.760144 15.760144 36.637218 24.356586 58.947032 24.356586 22.309814 0 43.186888-8.698781 58.844693-24.356586l300.977813-300.977814v448.243054c0 9.210474-7.368379 16.78353-16.578853 16.78353z" fill="#e6e6e6" ></path></svg>
