<svg class="icon" viewBox="0 0 1024 1024" version="1.1" xmlns="http://www.w3.org/2000/svg" width="16" height="16"><path d="M826 472c-17.673 0-32-14.327-32-32V136a8 8 0 0 0-8-8H136a8 8 0 0 0-8 8v752a8 8 0 0 0 8 8h289c17.673 0 32 14.327 32 32 0 17.673-14.327 32-32 32H96c-17.673 0-32-14.327-32-32V96c0-17.673 14.327-32 32-32h730c17.673 0 32 14.327 32 32v344c0 17.673-14.327 32-32 32zM211 270h471c17.673 0 32 14.327 32 32 0 17.673-14.327 32-32 32H211c-17.673 0-32-14.327-32-32 0-17.673 14.327-32 32-32z m5 206h212c17.673 0 32 14.327 32 32 0 17.673-14.327 32-32 32H216c-17.673 0-32-14.327-32-32 0-17.673 14.327-32 32-32z m0 206h212c17.673 0 32 14.327 32 32 0 17.673-14.327 32-32 32H216c-17.673 0-32-14.327-32-32 0-17.673 14.327-32 32-32z m304-206h44c17.673 0 32 14.327 32 32 0 17.673-14.327 32-32 32h-44c-17.673 0-32-14.327-32-32 0-17.673 14.327-32 32-32z m21.925 217.68a195.738 195.738 0 0 1 23.452-60.926A40.314 40.314 0 0 0 588.5 640c22.368 0 40.5-18.132 40.5-40.5 0-9.94-3.58-19.043-9.522-26.09 22.283-16.159 48.083-27.764 76.034-33.451C698.605 559.256 715.331 574 735.5 574c20.1 0 36.78-14.642 39.955-33.842 27.84 5.81 53.522 17.498 75.69 33.705A40.333 40.333 0 0 0 842 599.5c0 22.368 18.132 40.5 40.5 40.5a40.311 40.311 0 0 0 22.41-6.76 195.73 195.73 0 0 1 23.204 60.63C909.77 697.731 896 714.007 896 733.5c0 19.423 13.673 35.652 31.918 39.589a195.837 195.837 0 0 1-26.6 65.539A40.324 40.324 0 0 0 882.5 834c-22.368 0-40.5 18.132-40.5 40.5a40.32 40.32 0 0 0 5.437 20.283c-21.405 14.904-45.907 25.67-72.348 31.135C771.152 907.673 754.923 894 735.5 894c-19.492 0-35.768 13.77-39.63 32.114-26.515-5.344-51.102-16.011-72.597-30.839A40.312 40.312 0 0 0 629 874.5c0-22.368-18.132-40.5-40.5-40.5a40.318 40.318 0 0 0-19.562 5.029 195.846 195.846 0 0 1-26.816-65.745C560.846 769.718 575 753.262 575 733.5c0-19.831-14.254-36.334-33.075-39.82zM735.5 800c36.727 0 66.5-29.773 66.5-66.5 0-36.727-29.773-66.5-66.5-66.5-36.727 0-66.5 29.773-66.5 66.5 0 36.727 29.773 66.5 66.5 66.5z" fill="#e6e6e6"></path></svg>
