<svg class="icon" viewBox="0 0 1078 1024" version="1.1" xmlns="http://www.w3.org/2000/svg" width="16" height="16"><path d="M123.059109 1017.707997A122.879461 122.879461 0 0 1 0 895.187832v-772.48784A122.879461 122.879461 0 0 1 123.059109 0.00018h727.21646a122.879461 122.879461 0 0 1 123.059109 122.340516v251.507669h-65.391994v-251.507669a57.487467 57.487467 0 0 0-57.667115-57.128171H123.059109a57.487467 57.487467 0 0 0-57.667115 57.128171v772.48784A57.487467 57.487467 0 0 0 123.059109 952.136354h298.575533v65.032698z" ></path><path d="M159.70737 185.397261h631.463897v65.212346H159.70737zM159.70737 404.208933h384.08814v65.212346H159.70737zM159.70737 645.656295h244.321735v65.212346H159.70737zM554.394761 1023.995688a59.104302 59.104302 0 0 1-59.104302-58.924653v-110.483726c0-39.522634 19.40202-58.745006 59.104302-58.745006h66.649533l109.765132-135.095548-6.287691-2.694725a132.041526 132.041526 0 1 1 124.675944 0l-5.209802 2.874374 103.657089 134.915899h71.859334c56.229929 0 59.104302 22.456042 59.104303 58.745006v110.483726A59.104302 59.104302 0 0 1 1018.785707 1023.995688z m-4.31156-53.8945H1022.199025l1.796484-121.442274-473.912308 1.616835z m326.421025-174.258885H880.276841l-92.698541-118.028956-91.081706 115.873176-1.616835 2.15578z m-89.824168-329.834343a77.069136 77.069136 0 1 0 77.428433 76.889488 77.428432 77.428432 0 0 0-77.428433-76.889488z" ></path></svg>
