<svg class="icon" viewBox="0 0 1024 1024" version="1.1" xmlns="http://www.w3.org/2000/svg" width="16" height="16"><path d="M584.294794 482.067692h-11.657846a30.759385 30.759385 0 0 1-30.79877-30.72v-11.736615a40392.073846 40392.073846 0 0 1 0-207.556923 231.581538 231.581538 0 0 1 462.375385 19.298461 231.581538 231.581538 0 0 1-212.322461 230.715077c-1.142154 0.118154-70.301538 0.118154-207.556924 0zM19.598178 772.647385c0-121.422769 93.499077-221.853538 212.361847-231.699693 1.102769-0.118154 70.301538-0.118154 207.556923 0h12.524307c16.777846 0 30.444308 13.430154 30.759385 30.208 0.078769 5.238154 0.157538 9.649231 0.157538 13.233231v202.712615c0 1.732923-0.787692 3.150769-0.984615 4.844308A231.581538 231.581538 0 0 1 19.598178 772.647385z m212.361847-290.579693a231.581538 231.581538 0 1 1 250.013538-250.013538 40759.611077 40759.611077 0 0 1 0 220.199384c0 17.014154-13.784615 30.798769-30.72 30.79877h-11.736615c-137.255385-0.551385-206.454154-0.866462-207.556923-0.984616z m559.931077 59.864616a231.581538 231.581538 0 0 1-19.337847 462.375384 231.581538 231.581538 0 0 1-230.715077-212.361846c-0.196923-1.693538-0.984615-3.150769-0.984615-4.844308v-202.712615-12.524308c0-16.738462 13.430154-30.444308 30.208-30.72 5.277538-0.118154 9.688615-0.196923 13.233231-0.196923 137.294769 0.551385 206.454154 0.866462 207.556923 0.984616z" ></path></svg>
