<svg class="icon" viewBox="0 0 1045 1024" version="1.1" xmlns="http://www.w3.org/2000/svg"  width="16" height="16"><path d="M566.474009 121.981332v640.561987a43.583047 43.583047 0 0 1-87.166093 0v-627.18628L313.61554 300.79342a43.135056 43.135056 0 0 1-60.990666-60.990666L466.124204 26.303425a84.222158 84.222158 0 0 1 121.981332 0l213.499329 213.499329a43.135056 43.135056 0 0 1-60.990665 60.990666z m392.183421 553.395894a43.583047 43.583047 0 1 1 87.166093 0v217.59524A128.381192 128.381192 0 0 1 915.20238 1023.9776H130.77154A128.381192 128.381192 0 0 1 0.0224 893.228461v-217.59524a43.583047 43.583047 0 1 1 87.166093 0v217.59524a41.1511 41.1511 0 0 0 43.583047 43.583046H915.20238a41.1511 41.1511 0 0 0 43.583047-43.583046z" ></path></svg>
