<svg class="icon" viewBox="0 0 1024 1024" version="1.1" xmlns="http://www.w3.org/2000/svg" width="16" height="16"><path d="M1013.472 134.56C1013.472 60.352 953.12 0 878.912 0H145.088C70.88 0 10.528 60.352 10.528 134.56v753.184c0 74.208 60.352 134.56 134.56 134.56h625.92c20.32 0 36.8-16.48 36.8-36.8 0-20.32-16.48-36.8-36.8-36.8h-625.92c-33.632 0-60.992-27.36-60.992-60.992V134.56c0-33.632 27.36-60.992 60.992-60.992h733.824c33.632 0 60.992 27.36 60.992 60.992v642.112c0 20.32 16.48 36.768 36.768 36.768 20.32 0 36.8-16.48 36.8-36.768V134.56z" ></path><path d="M738.816 680.544c41.152-51.872 63.52-115.68 63.52-182.912 0-78.816-30.688-152.896-86.4-208.608-55.712-55.712-129.824-86.4-208.608-86.4-78.816 0-152.896 30.688-208.608 86.4-55.712 55.712-86.4 129.824-86.4 208.608 0 78.816 30.688 152.896 86.4 208.608 55.712 55.712 129.824 86.4 208.608 86.4 65.568 0 127.872-21.28 179.072-60.512l198.016 198.016a36.739 36.739 0 0 0 26.016 10.784c9.408 0 18.816-3.584 26.016-10.784 14.368-14.368 14.368-37.664 0-52.032L738.816 680.544z m-452.96-182.912c0-122.112 99.328-221.472 221.44-221.472s221.472 99.36 221.472 221.472c0 122.112-99.36 221.472-221.472 221.472s-221.44-99.36-221.44-221.472z" ></path></svg>
